# xmcd
#
# Track frame offsets:
#  150
#  19511
#  39127
#  62154
#  91848
#  111172
#  130786
#  153814
#
# Disc length: 2445 seconds
#
# Revision: 1
# Processed by: cddbd v1.5.1PL0 Copyright (c) Steve Scherf et al.
# Submitted via: Collectorz.com_Music_Collector 6.9
#
DISCID=52098b08
DTITLE=Brewster Brothers - Any Day
DYEAR=2003
DGENRE=Blues
TTITLE0=I Shall Be Released
TTITLE1=Across The Border Line
TTITLE2=Brother's Keeper
TTITLE3=Do It Again
TTITLE4=I Shall Be Released
TTITLE5=Across The Border Line
TTITLE6=Brother's Keeper
TTITLE7=Do It Again
EXTD=
EXTT0=
EXTT1=
EXTT2=
EXTT3=
EXTT4=
EXTT5=
EXTT6=
EXTT7=
PLAYORDER=
